<?xml version="1.0" encoding="utf-8"?>
<!-- Generator: Adobe Illustrator 21.0.2, SVG Export Plug-In . SVG Version: 6.00 Build 0)  -->
<svg version="1.1" id="Layer_1" xmlns="http://www.w3.org/2000/svg" xmlns:xlink="http://www.w3.org/1999/xlink" x="0px" y="0px"
	 viewBox="0 0 134 37.9" enable-background="new 0 0 134 37.9" xml:space="preserve">
<g>
	
		<rect x="111.5" y="15.4" transform="matrix(4.479556e-09 1 -1 4.479556e-09 149.4021 -80.7854)" fill="#F7E03C" width="7.1" height="37.8"/>
	
		<rect x="111.5" y="-15.4" transform="matrix(-5.124490e-09 1 -1 -5.124490e-09 118.6418 -111.5457)" fill="#F7E03C" width="7.1" height="37.8"/>
	
		<rect x="111.5" y="0" transform="matrix(-5.127310e-09 1 -1 -5.127310e-09 134.0219 -96.1656)" fill="#F7E03C" width="7.1" height="37.8"/>
</g>
<path fill="#EF5041" d="M48.4,37.9c20.9,0,37.9-17,37.9-37.9L48.4,0V37.9z"/>
<g>
	<g>
		<g>
			
				<rect x="0" y="0" transform="matrix(-4.939828e-10 1 -1 -4.939828e-10 37.9 1.047443e-06)" fill="#1F59A7" width="37.9" height="37.9"/>
		</g>
	</g>
</g>
</svg>
