<?xml version="1.0" encoding="utf-8"?>
<!-- Generator: Adobe Illustrator 21.0.2, SVG Export Plug-In . SVG Version: 6.00 Build 0)  -->
<svg version="1.1" id="Layer_1" xmlns="http://www.w3.org/2000/svg" xmlns:xlink="http://www.w3.org/1999/xlink" x="0px" y="0px"
	 viewBox="0 0 179.1 58" enable-background="new 0 0 179.1 58" xml:space="preserve">
<g>
	<path fill="#49BA86" d="M8.4,41.3c-4.6,0-8.3,3.7-8.3,8.3c0,4.6,3.7,8.3,8.3,8.3c4.6,0,8.3-3.7,8.3-8.3C16.7,45,13,41.3,8.4,41.3z
		 M8.4,53.6c-2.2,0-4-1.8-4-4c0-2.2,1.8-4,4-4s4,1.8,4,4C12.5,51.8,10.7,53.6,8.4,53.6z"/>
	<g>
		
			<rect x="48.3" y="6.6" transform="matrix(4.479109e-09 1 -1 4.479109e-09 64.4177 -35.1836)" fill="#F7E03C" width="3" height="16.1"/>
		
			<rect x="48.3" y="-6.5" transform="matrix(-5.124380e-09 1 -1 -5.124380e-09 51.3123 -48.289)" fill="#F7E03C" width="3" height="16.1"/>
		
			<rect x="48.3" y="0" transform="matrix(-5.127088e-09 1 -1 -5.127088e-09 57.865 -41.7363)" fill="#F7E03C" width="3" height="16.1"/>
	</g>
	<path fill="#EF5041" d="M20.9,16.1c8.9,0,16.1-7.2,16.1-16.1L20.9,0V16.1z"/>
	<g>
		
			<rect x="20.9" y="41.9" transform="matrix(-1 4.521996e-09 -4.521996e-09 -1 44.8664 99.89)" fill="#EF5041" width="3" height="16.1"/>
		
			<rect x="34" y="41.9" transform="matrix(-1 -5.080459e-09 5.080459e-09 -1 71.0773 99.89)" fill="#EF5041" width="3" height="16.1"/>
		
			<rect x="27.5" y="41.9" transform="matrix(-1 -5.079256e-09 5.079256e-09 -1 57.9719 99.89)" fill="#EF5041" width="3" height="16.1"/>
	</g>
	<g>
		<g>
			<g>
				
					<rect x="0.1" y="0" transform="matrix(-4.940015e-10 1 -1 -4.940015e-10 16.2332 -9.983495e-02)" fill="#1F59A7" width="16.1" height="16.1"/>
			</g>
		</g>
	</g>
	<g>
		<g>
			<g>
				<path fill="#F28034" d="M0.1,22.7L0.1,22.7c0,1.1,0.9,2,2,2h0c1.1,0,2-0.9,2-2v0c0-1.1-0.9-2-2-2h0C1,20.7,0.1,21.6,0.1,22.7z"
					/>
				<path fill="#F28034" d="M6.1,22.7L6.1,22.7c0,1.1,0.9,2,2,2h0c1.1,0,2-0.9,2-2v0c0-1.1-0.9-2-2-2h0C7,20.7,6.1,21.6,6.1,22.7z"
					/>
				<path fill="#F28034" d="M12.2,22.7L12.2,22.7c0,1.1,0.9,2,2,2h0c1.1,0,2-0.9,2-2v0c0-1.1-0.9-2-2-2h0
					C13.1,20.7,12.2,21.6,12.2,22.7z"/>
				<path fill="#F28034" d="M0.1,28.7L0.1,28.7c0,1.1,0.9,2,2,2h0c1.1,0,2-0.9,2-2v0c0-1.1-0.9-2-2-2h0C1,26.7,0.1,27.6,0.1,28.7z"
					/>
				<path fill="#F28034" d="M6.1,28.7L6.1,28.7c0,1.1,0.9,2,2,2h0c1.1,0,2-0.9,2-2v0c0-1.1-0.9-2-2-2h0C7,26.7,6.1,27.6,6.1,28.7z"
					/>
				<path fill="#F28034" d="M12.2,28.7L12.2,28.7c0,1.1,0.9,2,2,2h0c1.1,0,2-0.9,2-2v0c0-1.1-0.9-2-2-2h0
					C13.1,26.7,12.2,27.6,12.2,28.7z"/>
				<path fill="#F28034" d="M0.1,34.8L0.1,34.8c0,1.1,0.9,2,2,2h0c1.1,0,2-0.9,2-2v0c0-1.1-0.9-2-2-2h0C1,32.8,0.1,33.7,0.1,34.8z"
					/>
				<path fill="#F28034" d="M6.1,34.8L6.1,34.8c0,1.1,0.9,2,2,2h0c1.1,0,2-0.9,2-2v0c0-1.1-0.9-2-2-2h0C7,32.8,6.1,33.7,6.1,34.8z"
					/>
				<path fill="#F28034" d="M12.2,34.8L12.2,34.8c0,1.1,0.9,2,2,2h0c1.1,0,2-0.9,2-2v0c0-1.1-0.9-2-2-2h0
					C13.1,32.8,12.2,33.7,12.2,34.8z"/>
			</g>
		</g>
	</g>
	<path fill="#1F59A7" d="M49.8,20.4c-4.6,0-8.3,3.7-8.3,8.3c0,4.6,3.7,8.3,8.3,8.3s8.3-3.7,8.3-8.3C58.1,24.2,54.4,20.4,49.8,20.4z"
		/>
	<g>
		<path fill="#49BA86" d="M29,28.8c0,4.5,3.6,8.1,8.1,8.1V20.7C32.6,20.7,29,24.3,29,28.8z"/>
		<path fill="#49BA86" d="M29,28.8c0-4.5-3.6-8.1-8.1-8.1v16.1C25.4,36.8,29,33.2,29,28.8z"/>
	</g>
	<g>
		<g>
			<g>
				
					<rect x="41.7" y="41.9" transform="matrix(-4.934934e-10 1 -1 -4.934934e-10 99.7456 0.1443)" fill="#E8ADBE" width="16.1" height="16.1"/>
			</g>
		</g>
	</g>
	<g>
		<g>
			<g>
				<path fill="#121617" d="M69,34.8c1.4,1,3.2,1.4,4.2,1.4c1.1,0,1.8-0.4,1.8-1.4c0-1.2-1.2-1.3-2.9-1.9c-1.8-0.6-3.5-1.5-3.5-3.8
					c0-2.5,1.9-4,4.6-4c1.3,0,2.9,0.3,4,1v2.9c-1.4-0.9-3-1.3-4.1-1.3c-1,0-1.7,0.4-1.7,1.2c0,1.2,1.2,1.3,2.8,1.8
					c2,0.7,3.6,1.6,3.6,3.9c0,2.6-2,4.1-4.8,4.1c-1.3,0-2.9-0.3-4.2-1V34.8z M74.3,23.9h-2.2l-2.2-3h1.9l1.4,1.7l1.4-1.7h1.9
					L74.3,23.9z"/>
				<path fill="#121617" d="M84.1,29.3c2.9,0,5,2,5,4.7c0,2.7-2.1,4.7-5,4.7c-2.9,0-5-2-5-4.7C79.1,31.3,81.3,29.3,84.1,29.3z
					 M84.1,36.3c1.3,0,2.2-1,2.2-2.3c0-1.3-1-2.3-2.2-2.3c-1.3,0-2.2,1-2.2,2.3C81.9,35.2,82.9,36.3,84.1,36.3z"/>
				<path fill="#121617" d="M90.9,24.5h2.8v14h-2.8V24.5z"/>
				<path fill="#121617" d="M95.7,35.5c1.2,0.7,2.7,1,3.5,1c0.8,0,1.2-0.2,1.2-0.7c0-0.7-1-0.6-2.4-1c-1.7-0.4-2.7-1.1-2.7-2.6
					c0-1.9,1.7-3,3.9-3c1.1,0,2.4,0.2,3.4,0.7v2.4c-1.2-0.7-2.6-1-3.4-1c-0.7,0-1.2,0.2-1.2,0.6c0,0.7,1,0.6,2.3,0.9
					c1.7,0.4,2.8,1.1,2.8,2.6c0,2-1.7,3.1-4,3.1c-1.1,0-2.5-0.2-3.5-0.7V35.5z"/>
				<path fill="#121617" d="M105,24.5h2.8v8.8l0,0l3.1-3.8h3.2l-3.4,4l3.7,5h-3.3l-3.3-4.6l0,0v4.6H105V24.5z"/>
				<path fill="#121617" d="M117,25c0.9,0,1.6,0.7,1.6,1.6c0,0.9-0.7,1.6-1.6,1.6s-1.6-0.7-1.6-1.6C115.4,25.7,116.1,25,117,25z
					 M115.6,29.5h2.8v9h-2.8V29.5z"/>
				<path fill="#121617" d="M132.4,38c-0.9,0.5-1.9,0.7-2.9,0.7c-2.9,0-5-2-5-4.7c0-2.8,2.3-4.7,5.2-4.7c1,0,1.9,0.2,2.7,0.6v2.6
					c-0.8-0.5-1.7-0.8-2.5-0.8c-1.5,0-2.5,1-2.5,2.4c0,1.4,1,2.3,2.5,2.3c0.9,0,1.9-0.3,2.6-0.9V38z"/>
				<path fill="#121617" d="M136.6,34.7c0.3,1.2,1.3,1.8,2.6,1.8c1,0,2.1-0.3,3.1-1v2.3c-0.9,0.5-2.2,0.8-3.4,0.8
					c-3,0-5.1-1.8-5.1-4.7c0-2.9,2.2-4.7,4.7-4.7c2.2,0,4.3,1.5,4.3,4.5c0,0.3,0,0.7-0.1,1H136.6z M140.2,32.9
					c-0.2-1-0.9-1.6-1.8-1.6c-0.9,0-1.6,0.5-1.8,1.6H140.2z"/>
				<path fill="#121617" d="M144.6,29.5h2.7v0.8l0,0c0.7-0.6,1.6-1,2.8-1c1,0,1.8,0.3,2.4,0.9c0.5,0.6,0.8,1.4,0.8,2.7v5.6h-2.8
					v-5.2c0-0.7-0.1-1-0.3-1.3c-0.2-0.3-0.6-0.4-1-0.4c-0.7,0-1.4,0.4-1.9,0.7v6.1h-2.8V29.5z"/>
				<path fill="#121617" d="M161.4,38.2c-0.4,0.3-1.2,0.5-2,0.5c-0.9,0-1.8-0.3-2.3-0.9c-0.5-0.5-0.8-1.3-0.8-2.7v-3.3h-1.5v-2.3
					h1.5v-2.3l2.8-0.5v2.8h2.4v2.3H159v3c0,0.9,0.2,1.5,1,1.5c0.5,0,1-0.2,1.3-0.4V38.2z"/>
				<path fill="#121617" d="M165.2,34.7c0.3,1.2,1.3,1.8,2.6,1.8c1,0,2.1-0.3,3.1-1v2.3c-0.9,0.5-2.2,0.8-3.4,0.8
					c-3,0-5.1-1.8-5.1-4.7c0-2.9,2.2-4.7,4.7-4.7c2.2,0,4.3,1.5,4.3,4.5c0,0.3,0,0.7-0.1,1H165.2z M168.8,32.9
					c-0.2-1-0.9-1.6-1.8-1.6c-0.9,0-1.6,0.5-1.8,1.6H168.8z"/>
				<path fill="#121617" d="M173.2,29.5h2.7v1.2l0,0c0.6-0.9,1.5-1.3,2.6-1.3c0.2,0,0.4,0,0.6,0.1V32c-0.2-0.1-0.5-0.1-0.7-0.1
					c-1,0-1.8,0.3-2.4,1.1v5.4h-2.8V29.5z"/>
				<path fill="#121617" d="M74.5,52.5c-0.9-1.2-1.7-2.3-2.5-3.4l0,0c0,1.3,0,2.5,0,3.8v4.9h-2.8V44.6h2.7l4,5.3
					c0.9,1.2,1.7,2.3,2.5,3.4l0,0c0-1.3,0-2.5,0-3.8v-4.9h2.8v13.2h-2.7L74.5,52.5z"/>
				<path fill="#121617" d="M88,48.6c2.9,0,5,2,5,4.7c0,2.7-2.1,4.7-5,4.7c-2.9,0-5-2-5-4.7C83,50.7,85.1,48.6,88,48.6z M88,55.6
					c1.3,0,2.2-1,2.2-2.3c0-1.3-1-2.3-2.2-2.3c-1.3,0-2.2,1-2.2,2.3C85.8,54.6,86.7,55.6,88,55.6z"/>
				<path fill="#121617" d="M93.3,48.8h2.9l1.1,2.9c0.3,1,0.7,1.9,1,2.9h0c0.3-0.9,0.7-1.9,1.1-2.9l1.1-2.9h2.7l-3.7,9H97L93.3,48.8
					z"/>
				<path fill="#121617" d="M109.1,57.3c-0.6,0.4-1.5,0.7-2.5,0.7c-0.8,0-1.5-0.2-2.1-0.6c-0.7-0.5-1.1-1.2-1.1-2.1
					c0-1,0.5-1.7,1.1-2.2c0.7-0.5,1.6-0.6,2.5-0.6c0.5,0,1.1,0.1,1.6,0.2v-0.3c0-0.4-0.1-0.8-0.3-1c-0.3-0.2-0.7-0.4-1.4-0.4
					c-1,0-1.9,0.3-2.6,0.7v-2.4c0.7-0.4,1.8-0.7,3.1-0.7c1.2,0,2.3,0.3,3,0.9c0.7,0.5,1,1.4,1,2.5V55c0,0.4,0.2,0.7,0.5,0.7
					c0.1,0,0.3,0,0.5-0.1v2.1c-0.3,0.2-0.8,0.3-1.3,0.3C110.4,58,109.7,57.8,109.1,57.3L109.1,57.3z M108.7,54.3
					c-0.3-0.1-0.7-0.1-1-0.1c-0.7,0-1.4,0.2-1.4,0.9c0,0.6,0.5,0.9,1.2,0.9c0.5,0,0.9-0.2,1.3-0.4V54.3z"/>
				<path fill="#121617" d="M129.4,56.9c-1.2,0.7-2.9,1.1-4.5,1.1c-4.2,0-7.2-2.9-7.2-6.8c0-3.9,3-6.9,7.2-6.9c1.6,0,3,0.4,4.1,1
					v2.9c-1.1-0.8-2.6-1.3-4-1.3c-2.7,0-4.4,1.9-4.4,4.2c0,2.3,1.6,4.2,4.4,4.2c0.6,0,1.2-0.1,1.6-0.3v-2h-2.3v-2.4h5.1V56.9z"/>
				<path fill="#121617" d="M136.1,48.6c2.9,0,5,2,5,4.7c0,2.7-2.1,4.7-5,4.7c-2.9,0-5-2-5-4.7C131.1,50.7,133.3,48.6,136.1,48.6z
					 M136.1,55.6c1.3,0,2.2-1,2.2-2.3c0-1.3-1-2.3-2.2-2.3c-1.3,0-2.2,1-2.2,2.3C133.9,54.6,134.9,55.6,136.1,55.6z"/>
				<path fill="#121617" d="M142.9,48.8h2.7V50l0,0c0.6-0.9,1.5-1.3,2.6-1.3c0.2,0,0.4,0,0.6,0.1v2.6c-0.2-0.1-0.5-0.1-0.7-0.1
					c-1,0-1.8,0.3-2.4,1.1v5.4h-2.8V48.8z"/>
				<path fill="#121617" d="M151.6,44.4c0.9,0,1.6,0.7,1.6,1.6c0,0.9-0.7,1.6-1.6,1.6S150,46.8,150,46
					C150,45.1,150.7,44.4,151.6,44.4z M150.2,48.8h2.8v9h-2.8V48.8z"/>
				<path fill="#121617" d="M162.7,57.3c-0.9,0.5-1.9,0.7-2.9,0.7c-2.9,0-5-2-5-4.7c0-2.8,2.3-4.7,5.2-4.7c1,0,1.9,0.2,2.7,0.6v2.6
					c-0.8-0.5-1.7-0.8-2.5-0.8c-1.5,0-2.5,1-2.5,2.4c0,1.4,1,2.3,2.5,2.3c0.9,0,1.9-0.3,2.6-0.9V57.3z"/>
				<path fill="#121617" d="M169.7,57.3c-0.6,0.4-1.5,0.7-2.5,0.7c-0.8,0-1.5-0.2-2.1-0.6c-0.7-0.5-1.1-1.2-1.1-2.1
					c0-1,0.5-1.7,1.1-2.2c0.7-0.5,1.6-0.6,2.5-0.6c0.5,0,1.1,0.1,1.6,0.2v-0.3c0-0.4-0.1-0.8-0.3-1c-0.3-0.2-0.7-0.4-1.4-0.4
					c-1,0-1.9,0.3-2.6,0.7v-2.4c0.7-0.4,1.8-0.7,3.1-0.7c1.2,0,2.3,0.3,3,0.9c0.7,0.5,1,1.4,1,2.5V55c0,0.4,0.2,0.7,0.5,0.7
					c0.1,0,0.3,0,0.5-0.1v2.1c-0.3,0.2-0.8,0.3-1.3,0.3C171,58,170.2,57.8,169.7,57.3L169.7,57.3z M169.2,54.3
					c-0.3-0.1-0.7-0.1-1-0.1c-0.7,0-1.4,0.2-1.4,0.9c0,0.6,0.5,0.9,1.2,0.9c0.5,0,0.9-0.2,1.3-0.4V54.3z"/>
			</g>
		</g>
	</g>
</g>
</svg>
